PathFileType	4	(X/Y/Z)	C:/Users/opensim2020/Desktop/walking_exp_matlab/subject01_walking09_straight_03.trc																																																																																																																															
DataRate	CameraRate	NumFrames	NumMarkers	Units	OrigDataRate	OrigDataStartFrame	OrigNumFrames																																																																																																																											
100	100	5	43	mm	100	2974	348																																																																																																																											
Frame#	Time	LFHD			RFHD			LBHD			RBHD			C7			T10			CLAV			STRN			RBAK			LSHO			LUPA			LELB			LFRM			LWRA			LWRB			LFIN			RSHO			RUPA			RELB			RFRM			RWRA			RWRB			RFIN			LASI			RASI			LPSI			RPSI			LTHI			LKNE			LTIB			LANK			LHEE			LTOE			RTHI			RKNE			RTIB			RANK			RHEE			RTOE			*39			*40			*41			*42		
		X1	Y1	Z1	X2	Y2	Z2	X3	Y3	Z3	X4	Y4	Z4	X5	Y5	Z5	X6	Y6	Z6	X7	Y7	Z7	X8	Y8	Z8	X9	Y9	Z9	X10	Y10	Z10	X11	Y11	Z11	X12	Y12	Z12	X13	Y13	Z13	X14	Y14	Z14	X15	Y15	Z15	X16	Y16	Z16	X17	Y17	Z17	X18	Y18	Z18	X19	Y19	Z19	X20	Y20	Z20	X21	Y21	Z21	X22	Y22	Z22	X23	Y23	Z23	X24	Y24	Z24	X25	Y25	Z25	X26	Y26	Z26	X27	Y27	Z27	X28	Y28	Z28	X29	Y29	Z29	X30	Y30	Z30	X31	Y31	Z31	X32	Y32	Z32	X33	Y33	Z33	X34	Y34	Z34	X35	Y35	Z35	X36	Y36	Z36	X37	Y37	Z37	X38	Y38	Z38	X39	Y39	Z39	X40	Y40	Z40	X41	Y41	Z41	X42	Y42	Z42	X43	Y43	Z43
																																																																																																																																		
131	1.3	-349.98944	1678.87366	-1062.60291	-338.83377	1689.35254	-949.80237	-453.86353	1609.96411	-1054.53235	-444.80716	1618.91626	-934.55103	-460.39969	1430.05481	-1010.39093	-486.47208	1136.79248	-999.44489	-313.5983	1368.93384	-1005.72015	-265.99997	1214.16821	-1009.86548	-508.73221	1234.51868	-930.74872	-370.50656	1395.20374	-1167.60034	-386.00421	1210.47192	-1253.68616	-387.21936	1060.22388	-1258.98877	-339.2251	955.80707	-1280.38171	-257.24377	845.5257	-1253.3363	-307.18146	838.06226	-1285.88672	-253.42589	772.76044	-1291.34863	-380.15216	1393.3844	-855.4566	-427.80569	1190.85168	-752.76617	-420.42313	1066.0166	-750.13763	-386.82092	950.57715	-720.72821	-303.2674	836.58881	-744.97675	-343.72653	836.83026	-702.81049	-304.01874	759.33191	-707.47662	-308.9137	931.77802	-1106.66528	-306.83932	937.82538	-888.14789	-495.48032	939.3988	-1052.56189	-493.21124	946.45258	-907.45392	-306.46393	600.99213	-1174.83032	-310.23148	467.34387	-1170.04663	-452.875	348.91202	-1179.15637	-609.20691	196.82961	-1132.73376	-656.00897	201.99023	-1074.42273	-544.04694	67.24642	-1145.32837	-336.48776	602.96344	-839.88611	-312.73721	446.37445	-870.87927	-359.46338	274.72925	-869.44702	-375.4451	72.49461	-928.18738	-422.13766	34.67144	-980.89612	-234.28255	34.50356	-924.98425	-357.74448	1718.94812	-972.71283	1972.98828	1023.83948	-3101.96655	2012.55237	1021.95941	-3140.71655	NaN	NaN	NaN
132	1.31	-343.58176	1679.08984	-1061.08972	-332.29703	1689.57837	-948.47479	-447.57224	1610.43298	-1053.15454	-438.47803	1619.2677	-933.22668	-454.54489	1430.45898	-1009.01703	-480.80872	1137.24976	-998.22766	-307.73001	1369.04016	-1004.07288	-260.25354	1214.2981	-1008.44495	-502.95795	1234.96851	-929.48181	-364.62091	1395.4502	-1166.34253	-381.3414	1210.68921	-1252.19287	-383.50583	1060.53735	-1257.22144	-336.70413	955.61292	-1278.77747	-256.39069	844.17987	-1251.89185	-306.25784	837.46442	-1284.56458	-253.30397	771.40796	-1290.13403	-374.16055	1393.61499	-854.13422	-420.22632	1191.04956	-751.04572	-412.16391	1066.33435	-748.01367	-377.54855	951.12347	-718.66687	-293.36893	837.83374	-743.22595	-333.30688	837.7218	-700.66016	-293.36243	760.61084	-705.41754	-302.9472	932.44409	-1104.83984	-301.68735	938.02435	-886.2785	-489.58484	939.82727	-1051.8667	-488.39957	946.55261	-906.76538	-296.53589	602.53168	-1174.00708	-298.16617	469.03537	-1169.22815	-440.04666	350.08337	-1177.58032	-595.28357	196.70491	-1130.50793	-642.33374	200.19644	-1071.94275	-526.8515	69.02059	-1144.46875	-333.17776	602.87122	-839.13983	-310.91995	446.02783	-870.138	-358.5127	274.65793	-869.03912	-375.40491	72.44028	-928.17261	-422.01108	34.8846	-980.97504	-234.28264	34.47528	-924.90802	-351.10666	1719.10083	-971.41901	1973.17017	1023.51898	-3101.87378	2012.46912	1021.94745	-3140.64795	NaN	NaN	NaN
133	1.32	-337.12439	1679.3772	-1059.89648	-325.80637	1689.729	-947.20038	-441.3093	1610.9071	-1051.81519	-432.05798	1619.74084	-931.79004	-448.60712	1430.94873	-1007.8064	-475.16492	1137.6084	-997.16925	-301.6954	1369.27222	-1003.2558	-254.54243	1214.44165	-1007.00842	-497.28644	1235.47607	-928.27502	-358.80673	1395.72314	-1165.14807	-376.68344	1210.89282	-1250.75134	-379.81265	1060.80286	-1255.4978	-334.45065	955.52332	-1277.47766	-254.84375	843.20038	-1251.13269	-305.22998	836.95496	-1283.30078	-253.15346	770.18256	-1289.0636	-368.21274	1393.88391	-852.96912	-412.7196	1191.27112	-749.38733	-403.92654	1066.62756	-746.01556	-368.21463	951.82214	-716.60626	-283.64282	839.1189	-741.62451	-323.35651	838.71368	-698.74469	-282.73901	761.86334	-703.43811	-296.97369	933.11963	-1103.14636	-296.66879	938.05121	-884.58728	-483.76862	940.23474	-1051.25378	-483.26941	946.58643	-906.09241	-286.90228	604.07355	-1173.14319	-286.19986	470.65228	-1168.06665	-427.24799	350.92239	-1176.01514	-580.92993	195.57117	-1128.38965	-628.18463	197.80966	-1069.58997	-508.91605	70.5612	-1143.63379	-330.08508	602.73383	-838.50287	-309.16348	445.68369	-869.5351	-357.41632	274.52722	-868.76166	-375.43616	72.49955	-928.13263	-421.73126	34.53712	-981.06659	-234.24811	34.39774	-924.8349	-344.56699	1719.43433	-970.07324	1973.17212	1023.42194	-3102.02832	2012.56702	1022.0144	-3140.73511	NaN	NaN	NaN
134	1.33	-330.63037	1679.61255	-1058.54211	-319.27231	1689.98315	-945.87891	-435.03293	1611.45471	-1050.57629	-425.7095	1620.20691	-930.52527	-442.62234	1431.25305	-1006.56641	-469.49014	1137.97668	-996.17664	-295.92963	1369.43579	-1001.69446	-248.83342	1214.59082	-1005.59448	-491.83417	1235.93335	-927.11188	-352.79669	1396.01624	-1164.04041	-372.00101	1211.104	-1249.31189	-376.08795	1061.16125	-1253.88123	-331.80783	955.42389	-1275.88232	-253.59779	842.11725	-1250.01782	-304.09576	836.54572	-1282.09265	-252.92474	768.94659	-1287.85754	-362.5033	1394.21033	-851.75269	-405.31723	1191.45935	-747.84753	-395.7113	1066.98206	-744.04224	-358.78683	952.73834	-714.58539	-273.82394	840.27722	-739.85907	-313.11212	839.76862	-696.75165	-271.82373	763.30713	-701.52478	-291.19852	933.84589	-1101.44763	-291.64029	938.11938	-882.94366	-478.04205	940.68927	-1050.62915	-478.20294	946.6228	-905.52423	-277.37064	605.41418	-1172.30798	-274.68195	472.27768	-1167.26868	-414.40805	351.34244	-1174.43689	-565.8988	193.82588	-1126.45764	-613.44141	194.48225	-1067.51404	-490.22327	71.43494	-1142.63037	-326.96722	602.49023	-837.94275	-307.22586	445.30637	-868.94806	-356.48148	274.51178	-868.3797	-375.3974	72.48846	-928.09802	-421.5972	34.89526	-981.1319	-234.28603	34.38821	-924.79706	-337.93689	1719.60767	-968.89453	1973.16357	1023.41144	-3101.979	2012.58472	1022.0108	-3140.70166	NaN	NaN	NaN
135	1.34	-324.11011	1679.82239	-1057.39941	-312.78033	1690.0957	-944.70898	-428.64688	1611.91052	-1049.36157	-419.33414	1620.65698	-929.33856	-436.64102	1431.57629	-1005.41211	-463.89539	1138.35999	-995.11218	-290.07022	1369.63184	-1000.53485	-243.0918	1214.77332	-1004.3028	-486.1488	1236.33032	-926.10065	-347.10217	1396.21289	-1162.90076	-367.22702	1211.30725	-1247.99304	-372.38507	1061.44385	-1252.34167	-329.28076	955.32306	-1274.474	-252.26978	841.14038	-1248.97253	-302.89066	836.17584	-1280.96313	-252.50226	767.90515	-1286.69531	-356.75668	1394.40405	-850.7265	-398.13623	1191.69507	-746.33752	-387.55249	1067.37268	-742.15552	-349.62469	953.48663	-712.79163	-263.88461	841.63586	-738.33923	-302.8895	840.91089	-694.99103	-261.04807	764.73151	-699.67657	-285.47531	934.53009	-1099.98865	-286.43781	938.22308	-881.36823	-472.3519	941.10138	-1050.01733	-472.83496	946.63837	-904.81506	-268.12521	607.0816	-1171.1626	-263.29062	473.82349	-1165.93396	-401.62466	351.36325	-1172.80859	-550.29431	191.34181	-1124.61047	-598.02307	190.36931	-1065.61951	-470.65408	71.62703	-1141.77063	-323.8428	602.45367	-837.32043	-305.40591	445.02713	-868.83942	-355.34695	274.45538	-868.06952	-375.35159	72.48247	-928.11145	-421.68152	34.92609	-981.14484	-234.25377	34.3557	-924.73621	-331.3096	1719.98633	-967.52429	1973.15125	1023.6236	-3101.87183	2012.53796	1022.02716	-3140.81128	NaN	NaN	NaN
